<?xml version="1.0" encoding="UTF-8" standalone="no"?>
<svg
   xmlns:dc="http://purl.org/dc/elements/1.1/"
   xmlns:cc="http://creativecommons.org/ns#"
   xmlns:rdf="http://www.w3.org/1999/02/22-rdf-syntax-ns#"
   xmlns:svg="http://www.w3.org/2000/svg"
   xmlns="http://www.w3.org/2000/svg"
   xmlns:sodipodi="http://sodipodi.sourceforge.net/DTD/sodipodi-0.dtd"
   xmlns:inkscape="http://www.inkscape.org/namespaces/inkscape"
   version="1.1"
   id="svg2"
   width="260"
   height="90"
   viewBox="0 0 260 90"
   sodipodi:docname="260px-Django_logo.svg.svg"
   inkscape:version="1.0.2 (e86c870879, 2021-01-15)">
  <metadata
     id="metadata8">
    <rdf:RDF>
      <cc:Work
         rdf:about="">
        <dc:format>image/svg+xml</dc:format>
        <dc:type
           rdf:resource="http://purl.org/dc/dcmitype/StillImage" />
        <dc:title></dc:title>
      </cc:Work>
    </rdf:RDF>
  </metadata>
  <defs
     id="defs6" />
  <sodipodi:namedview
     pagecolor="#ffffff"
     bordercolor="#666666"
     borderopacity="1"
     objecttolerance="10"
     gridtolerance="10"
     guidetolerance="10"
     inkscape:pageopacity="0"
     inkscape:pageshadow="2"
     inkscape:window-width="1366"
     inkscape:window-height="693"
     id="namedview4"
     showgrid="false"
     inkscape:zoom="2.0961538"
     inkscape:cx="192.2315"
     inkscape:cy="74.877575"
     inkscape:window-x="0"
     inkscape:window-y="0"
     inkscape:window-maximized="1"
     inkscape:current-layer="g10" />
  <g
     inkscape:groupmode="layer"
     inkscape:label="Image"
     id="g10">
    <path
       style="fill:#060606;stroke:none"
       d="M 34.001978,3.7478087 V 23.747809 c -5.3565,0 -10.896,-0.3866 -16,1.5633 -13.5886595,5.1913 -17.3413895,25.684702 -7.6096,36.223702 5.4074,5.8559 14.203,6.2451 21.6096,6.2122 3.7397,-0.0166 12.3715,0.4813 14.9722,-2.7415 2.6891,-3.3323 1.0278,-12.1877 1.0278,-16.2577 V 3.7478087 h -14 m 22,0 V 16.747809 h 13 V 3.7478087 h -13 m 22,23.0000003 v 10 c 7.1478,-1.215 19.127599,-7.436 20.000002,4 -6.219303,0.0172 -13.753702,0.4758 -18.786302,4.6489 -5.9744,4.954102 -5.8222,16.118302 0.8303,20.341802 8.011599,5.0865 21.099002,1.1921 29.956002,1.0093 0,-9.6754 4.849,-33.570202 -3.228,-40.347202 -7.468,-6.2658 -20.572102,-1.5326 -28.772002,0.3472 m 39.000002,40.000002 h 13 c 0,-6.7316 -3.24,-25.416702 1.603,-30.410502 3.453,-3.56 9.736,-1.8054 11.503,2.4653 3.154,7.621 0.894,19.777502 0.894,27.945202 h 13 c 0,-10.0515 3.253,-27.101502 -2.09,-35.956802 -4.789,-7.9385 -30.681,-11.5889 -36.882,-3.4545 -2.052,2.6916 -1.028,8.235 -1.028,11.4113 v 28.000002 m 73,0 c -4.255,14.5296 -15.076,11.727 -27,9 v 12 c 5.078,1.0475 9.778,2.0502 15,1.9961 30.935,-0.3202 24,-33.9865 24,-54.996102 5.235,-0.9005 6.281,-5.2053 7,-10 -12.983,-0.268 -29.06,-4.2866 -39.985,5.2137 -10.059,8.7477 -11.152,27.316102 0.989,34.942902 6.318,3.9689 13.092,2.3882 19.996,1.8434 m 34,-42.470702 c -27.515,6.3603 -15.246,50.433202 13,43.427502 15.589,-3.8664 21.192,-25.949402 10.61,-37.771602 -5.664,-6.3267 -15.67,-7.4913 -23.61,-5.6559 m -168.000002,0.4707 c 0,18.3904 5.6133,44.239602 -13,55.000002 v 1 c 3.6537,1.5212 7.9297,4.6796 12,4.5586 6.4532,-0.1917 11.2522,-7.9752 12.4815,-13.5586 3.308,-15.025 1.5185,-31.708102 1.5185,-47.000002 h -13 m -22,10 v 22.000002 c -19.6375,2.7896 -19.3078,-25.422602 0,-22.000002 m 151.941002,-0.4668 c 6.421,0.1474 7.259,22.693402 -1.945,22.392702 -13.654,-0.446 -10.679,-22.682602 1.945,-22.392702 m 44.06,0.0895 c 11.496,-1.5669 12.204,20.881602 1.994,23.040102 -12.071,2.552 -13.51,-21.470602 -1.994,-23.040102 m -131.001,14.377302 c -0.002,2.3469 0.469,5.5104 -0.6034,7.6821 -3.653903,7.4003 -19.450302,-3.7359 -5.397403,-6.7431 1.9821,-0.4241 3.9937,-0.684 6.000803,-0.939 z"
       id="path839" />
  </g>
</svg>
