<?xml version="1.0" encoding="UTF-8" standalone="no"?>
<svg
   xmlns:dc="http://purl.org/dc/elements/1.1/"
   xmlns:cc="http://creativecommons.org/ns#"
   xmlns:rdf="http://www.w3.org/1999/02/22-rdf-syntax-ns#"
   xmlns:svg="http://www.w3.org/2000/svg"
   xmlns="http://www.w3.org/2000/svg"
   xmlns:sodipodi="http://sodipodi.sourceforge.net/DTD/sodipodi-0.dtd"
   xmlns:inkscape="http://www.inkscape.org/namespaces/inkscape"
   version="1.1"
   id="svg2"
   width="504"
   height="362"
   viewBox="0 0 504 362"
   sodipodi:docname="spring.svg"
   inkscape:version="1.0.2 (e86c870879, 2021-01-15)">
  <metadata
     id="metadata8">
    <rdf:RDF>
      <cc:Work
         rdf:about="">
        <dc:format>image/svg+xml</dc:format>
        <dc:type
           rdf:resource="http://purl.org/dc/dcmitype/StillImage" />
        <dc:title />
      </cc:Work>
    </rdf:RDF>
  </metadata>
  <defs
     id="defs6" />
  <sodipodi:namedview
     pagecolor="#ffffff"
     bordercolor="#666666"
     borderopacity="1"
     objecttolerance="10"
     gridtolerance="10"
     guidetolerance="10"
     inkscape:pageopacity="0"
     inkscape:pageshadow="2"
     inkscape:window-width="1366"
     inkscape:window-height="693"
     id="namedview4"
     showgrid="false"
     inkscape:zoom="0.51665675"
     inkscape:cx="304.09431"
     inkscape:cy="241.06816"
     inkscape:window-x="0"
     inkscape:window-y="0"
     inkscape:window-maximized="1"
     inkscape:current-layer="g839"
     inkscape:document-rotation="0" />
  <g
     inkscape:groupmode="layer"
     inkscape:label="Image"
     id="g10">
    <g
       id="g839"
       transform="translate(-270.06974,-135.9576)"
       style="fill:#008000">
      <path
         style="fill:#008000"
         d="m 365.22667,495.72809 c -2.08983,-1.31105 -3.57862,-3.3188 -4.30267,-5.80253 -0.76836,-2.6357 -1.01453,-21.1432 -0.80447,-60.4827 l 0.30267,-56.68489 2.83329,-2.95677 c 3.49363,-3.64589 7.71287,-4.59884 12.15111,-2.74442 4.32926,1.80888 6.43685,5.1104 7.15997,11.21606 l 0.58011,4.89806 6.28302,-6.16055 c 23.22167,-22.76897 61.13266,-9.87798 71.05221,24.1601 1.10211,3.78178 1.74052,9.42654 1.74819,15.45729 0.0206,16.16478 -4.28811,27.93415 -13.9254,38.03784 -17.18724,18.01902 -43.79024,18.60705 -61.0479,1.34939 l -4.3346,-4.3346 -0.006,16.72369 c -0.003,9.19802 -0.45238,18.3321 -0.99848,20.29794 -2.09864,7.55472 -10.32743,11.01853 -16.69147,7.02609 z m 58.20552,-49.21005 c 13.29761,-6.25061 19.69416,-23.98268 14.64634,-40.60154 -4.00809,-13.19575 -13.49026,-20.56281 -26.65633,-20.71033 -11.97523,-0.13417 -21.02272,5.75979 -26.69575,17.39087 -1.79169,3.67339 -2.21877,6.32832 -2.25704,14.0307 -0.051,10.25747 0.8734,13.62585 5.70324,20.78232 7.37307,10.92482 22.87533,14.92925 35.25954,9.10798 z M 705.4222,495.4813 c -6.6797,-1.23275 -16.95381,-4.60806 -22.55128,-7.40868 -7.07369,-3.53923 -8.80515,-9.08519 -4.45167,-14.25901 3.87634,-4.60677 6.50794,-4.74395 15.30562,-0.79788 9.94744,4.46179 17.98541,5.9624 29.09276,5.43135 15.70277,-0.75076 24.62676,-7.33248 27.66535,-20.40408 0.74564,-3.20765 1.22982,-5.95799 1.07594,-6.11187 -0.15387,-0.15387 -2.65643,2.01103 -5.56125,4.8109 -24.31648,23.43797 -64.36495,9.44609 -72.5699,-25.35402 -3.08485,-13.08394 -1.474,-29.00649 4.09831,-40.51003 3.16798,-6.54001 11.2542,-15.49672 17.06504,-18.9021 13.73497,-8.04923 31.4745,-8.33287 43.57102,-0.69667 2.16322,1.36558 6.14419,4.80104 8.8466,7.63435 l 4.91346,5.15147 v -4.76831 c 0,-5.87013 2.10364,-10.1541 5.96727,-12.15205 3.70793,-1.91745 6.35753,-1.91745 10.06546,0 5.912,3.05721 5.96896,3.50888 5.94991,47.18341 -0.0188,43.20674 -0.54411,48.7952 -5.54745,59.02165 -5.33453,10.9034 -16.41915,18.68513 -31.02275,21.77889 -7.60947,1.61206 -24.10089,1.79431 -31.91244,0.35268 z m 30.30129,-49.44183 c 6.43869,-3.20853 11.53535,-9.03544 14.28556,-16.33238 3.02468,-8.02517 2.39183,-21.41712 -1.35638,-28.7027 -10.72187,-20.84064 -39.03212,-21.82464 -49.92994,-1.73545 -9.24837,17.04856 -3.06486,40.33906 12.59835,47.45239 6.44183,2.9255 17.80028,2.60812 24.40241,-0.68186 z M 306.4222,467.91319 c -10.47326,-1.44839 -27.79503,-8.63901 -31.99769,-13.28289 -2.4468,-2.70369 -2.19254,-8.63894 0.49252,-11.49706 3.80266,-4.04774 6.41744,-3.98689 14.84749,0.3455 9.95484,5.11602 17.02976,7.149 24.87902,7.149 8.68055,0 13.78015,-2.60409 15.34811,-7.83745 2.33915,-7.80742 -2.73141,-12.03132 -20.56945,-17.13482 -23.14084,-6.62065 -31.91516,-14.75482 -31.85153,-29.52773 0.0682,-15.82501 10.56056,-26.71225 28.53289,-29.60661 9.32094,-1.50109 22.17228,0.63474 33.22161,5.52128 8.89463,3.93363 11.94891,10.32568 7.58484,15.87369 -3.20851,4.07897 -6.85091,4.28295 -14.72975,0.8249 -19.16175,-8.41014 -34.25806,-6.25045 -34.25806,4.90099 0,5.98372 3.60448,8.41542 21.29507,14.36638 18.78009,6.31744 25.40053,10.62271 29.33806,19.0785 4.38904,9.42541 2.46383,21.74096 -4.66459,29.83927 -7.72549,8.77662 -22.37975,13.07375 -37.46854,10.98705 z m 171.87829,-0.72237 c -6.55502,-2.85291 -6.37829,-1.48592 -6.37829,-49.33525 0,-48.12622 -0.007,-48.07359 6.50422,-50.79404 4.65768,-1.94611 8.92877,-0.8436 12.50324,3.2275 2.14,2.43733 2.99253,4.4356 2.99253,7.0143 v 3.60599 l 3.89834,-4.42875 c 5.17782,-5.88231 13.84682,-10.1113 20.93722,-10.21379 4.85203,-0.0701 5.66843,0.24141 8.27382,3.15735 2.28592,2.55838 2.89062,4.18275 2.89062,7.76484 0,6.05104 -2.59004,8.51196 -11.95106,11.35529 -6.28269,1.9083 -8.19392,3.06846 -13.04255,7.91709 -9.35643,9.35643 -10.2844,12.84441 -10.95225,41.16639 -0.36941,15.66589 -0.95932,24.20662 -1.76956,25.61965 -1.23702,2.15731 -6.98718,5.41226 -9.43571,5.34121 -0.74188,-0.0215 -2.75363,-0.65053 -4.47057,-1.39778 z m 66.93552,-0.46176 c -1.7524,-1.09686 -3.6649,-2.88879 -4.25,-3.98207 -0.70545,-1.31815 -1.06382,-16.78671 -1.06382,-45.91865 0,-42.53029 0.0643,-44.01258 2.01564,-46.49335 1.1086,-1.40936 3.54501,-3.06721 5.41424,-3.68411 4.52873,-1.49461 9.79845,0.67283 12.56183,5.16668 1.97628,3.21388 2.02784,4.56794 1.7719,46.54175 l -0.26361,43.23158 -3.04958,3.04877 c -3.98486,3.98381 -8.86894,4.76063 -13.1366,2.0894 z m 35.00089,0.43502 c -6.29257,-2.73682 -6.31471,-2.91223 -6.31471,-50.03634 0,-45.79644 0.1009,-46.75754 5.16469,-49.19468 4.42359,-2.12903 5.95681,-2.28139 9.22331,-0.91656 4.76689,1.99173 7.612,6.08894 7.612,10.96194 v 4.08098 l 5.25,-5.11347 c 6.3616,-6.19617 11.32085,-8.78971 19.71937,-10.31265 7.47074,-1.35471 16.9907,-0.0869 23.2233,3.09273 9.66556,4.931 16.05629,14.66294 17.87232,27.21637 1.5059,10.40957 1.17366,60.18576 -0.42696,63.96746 -2.13328,5.04017 -5.2179,7.21788 -10.22378,7.21788 -3.60771,0 -4.94962,-0.57347 -7.64501,-3.26711 l -3.26923,-3.26712 -0.5,-30.73288 c -0.54455,-33.47103 -0.57701,-33.66317 -6.66073,-39.41927 -3.88208,-3.67303 -7.38217,-4.81748 -14.65438,-4.79166 -11.07677,0.0393 -18.1697,5.13672 -21.16024,15.20696 -1.19786,4.03363 -1.52466,10.78592 -1.52466,31.50224 0,29.48176 -0.34347,31.26092 -6.5343,33.84762 -4.13932,1.72951 -5.08697,1.72512 -9.15099,-0.0424 z M 534.42219,341.91072 c -13.2668,-1.84567 -32.08763,-9.35868 -43.50195,-17.36537 -3.29893,-2.31407 -5.99702,-4.25469 -5.99577,-4.3125 0.001,-0.0578 1.36685,-0.15382 3.03465,-0.21334 4.66491,-0.16651 7.96307,-3.87562 7.96307,-8.9553 0,-5.54924 -2.38063,-8.40958 -7.57955,-9.1069 -5.32991,-0.71489 -9.38377,2.50787 -10.30816,8.19485 l -0.6357,3.91089 -5.98829,-7.22621 c -10.46635,-12.62998 -17.14651,-25.5924 -21.75237,-42.2091 -3.02742,-10.92209 -3.00968,-37.11645 0.0326,-48.17543 8.51723,-30.96075 29.66432,-56.171 57.83082,-68.9423 15.84197,-7.18309 38.45993,-10.41966 55.45223,-7.93505 20.13917,2.94473 37.22481,10.82685 53.62303,24.73789 l 6.21779,5.27471 1.99001,-2.79471 c 1.09451,-1.5371 3.50449,-5.75108 5.35551,-9.36441 l 3.36549,-6.56969 4.16574,13.63449 c 14.62933,47.88192 17.36806,77.18331 9.69044,103.67716 -12.98355,44.80347 -52.78624,74.83727 -98.45961,74.29437 -6.325,-0.0752 -12.85,-0.32451 -14.5,-0.55405 z M 545.639,310.51419 c 33.5196,0.22681 43.12049,-0.4536 56.23812,-3.98553 22.11465,-5.95438 36.68432,-21.2631 43.20908,-45.40092 2.88194,-10.66147 3.12268,-38.02594 0.46187,-52.5 -2.91741,-15.86995 -10.76949,-45.35299 -12.6027,-47.32071 -0.42054,-0.4514 -2.23682,1.5736 -4.03619,4.5 -4.51244,7.33878 -16.15024,19.10554 -24.17619,24.44408 -9.47928,6.30523 -22.13589,12.00274 -31.9173,14.36792 -4.73917,1.14594 -15.35952,2.47891 -24.3935,3.06163 -30.645,1.97673 -43.04029,6.23275 -55.95508,19.21264 -10.78621,10.84057 -15.51004,22.05605 -15.53305,36.8791 -0.0214,13.78685 5.27877,25.71046 13.99158,31.47632 l 4.01884,2.65954 16.23886,-3.74195 c 42.97818,-9.90357 59.21455,-17.04526 81.57932,-35.88331 8.46434,-7.1296 19.12414,-19.5655 24.28565,-28.33205 4.17285,-7.08737 3.49132,-4.34034 -1.50374,6.06109 -7.56495,15.75283 -18.73982,29.73226 -32.8805,41.13252 -15.78123,12.72288 -23.95592,16.58115 -57.24188,27.0169 -17.34956,5.43941 -24.76091,8.64565 -16,6.9218 2.2,-0.43288 18.49756,-0.68897 36.21681,-0.56907 z"
         id="path841" />
    </g>
    <path
       style="fill:#000000"
       id="path837"
       d="" />
  </g>
</svg>
