<?xml version="1.0" encoding="UTF-8" standalone="no"?>
<svg
   xmlns:dc="http://purl.org/dc/elements/1.1/"
   xmlns:cc="http://creativecommons.org/ns#"
   xmlns:rdf="http://www.w3.org/1999/02/22-rdf-syntax-ns#"
   xmlns:svg="http://www.w3.org/2000/svg"
   xmlns="http://www.w3.org/2000/svg"
   xmlns:sodipodi="http://sodipodi.sourceforge.net/DTD/sodipodi-0.dtd"
   xmlns:inkscape="http://www.inkscape.org/namespaces/inkscape"
   version="1.1"
   id="svg2"
   width="1200"
   height="600"
   viewBox="0 0 1200 600"
   sodipodi:docname="java.svg"
   inkscape:version="1.0.2 (e86c870879, 2021-01-15)">
  <metadata
     id="metadata8">
    <rdf:RDF>
      <cc:Work
         rdf:about="">
        <dc:format>image/svg+xml</dc:format>
        <dc:type
           rdf:resource="http://purl.org/dc/dcmitype/StillImage" />
        <dc:title></dc:title>
      </cc:Work>
    </rdf:RDF>
  </metadata>
  <defs
     id="defs6" />
  <sodipodi:namedview
     pagecolor="#ffffff"
     bordercolor="#666666"
     borderopacity="1"
     objecttolerance="10"
     gridtolerance="10"
     guidetolerance="10"
     inkscape:pageopacity="0"
     inkscape:pageshadow="2"
     inkscape:window-width="1366"
     inkscape:window-height="693"
     id="namedview4"
     showgrid="false"
     inkscape:zoom="0.31171624"
     inkscape:cx="476.9365"
     inkscape:cy="-168.89732"
     inkscape:window-x="0"
     inkscape:window-y="0"
     inkscape:window-maximized="1"
     inkscape:current-layer="g10" />
  <g
     inkscape:groupmode="layer"
     inkscape:label="Image"
     id="g10">
    <g
       id="g950"
       transform="translate(-19.75756,-57.236911)">
      <g
         id="g904"
         style="fill:#f58219;fill-opacity:1">
        <path
           id="path889"
           style="fill:#f58219;fill-opacity:1"
           d="m 271.3656,363.73444 c -11.72605,-9.20533 -21.65361,-20.46237 -32.16736,-30.96814 -13.78328,-15.11859 -28.01834,-33.57126 -26.77178,-55.16055 2.59781,-20.6067 20.02818,-34.34694 34.29961,-47.54213 24.39486,-21.11976 54.40536,-38.54319 68.51941,-68.90174 5.84914,-12.86291 6.37941,-27.3535 4.55725,-41.1557 2.76368,-11.20783 10.84425,11.03507 10.86945,16.13355 3.45413,19.37576 -2.92533,39.08456 -14.13359,54.85985 -15.42704,24.1617 -39.89602,39.9606 -60.0701,59.64707 -13.04722,13.44291 -23.32431,32.75666 -17.75773,51.86131 5.66211,22.75021 24.10132,38.92676 33.91072,59.65664 0.19492,0.71246 -0.40375,1.81005 -1.25588,1.56984 z" />
        <path
           id="path887"
           style="fill:#f58219;fill-opacity:1"
           d="m 292.18075,379.73444 c 1.89817,-8.60626 10.6662,-14.80582 9.79812,-24.16627 1.19818,-13.68396 -9.69254,-23.77142 -17.30528,-33.72938 -11.21545,-15.83896 -15.76742,-38.35853 -5.59603,-55.83439 15.14644,-25.09982 42.22023,-39.47541 68.64805,-49.94245 7.90545,-3.07967 15.93903,-5.81921 24.01994,-8.39933 -2.8409,9.13313 -14.19803,9.06935 -19.92079,15.43316 -18.30664,11.89761 -37.41964,24.60537 -48.49112,44.02904 -5.90099,15.35646 2.49154,31.73247 12.57485,43.19382 8.6624,10.62662 14.31173,26.32235 7.12688,39.19916 -6.31625,13.35551 -18.35066,22.94284 -30.85462,30.21664 z" />
      </g>
      <g
         id="g932">
        <g
           id="g910">
          <path
             id="path873"
             style="fill:#4e7896;fill-opacity:1"
             d="m 1043.0449,256.47852 c -13.9243,0.8653 -28.1072,-0.16788 -41.6935,3.56362 -9.86685,1.90263 -19.29106,5.49492 -28.66628,8.99584 -4.82348,4.31265 0.94957,11.44095 0.8525,16.93044 -0.1355,8.39211 7.64526,6.69953 12.7394,3.94524 10.56116,-2.95229 21.29718,-5.7377 32.32508,-5.79379 7.8785,-1.00936 15.6945,-0.37756 23.2208,2.1424 9.3456,2.58912 15.06,12.42733 14.962,21.70108 -1.6729,5.546 4.2274,18.27674 -4.15,17.46899 -13.6453,0.68678 -27.4764,0.0871 -40.8052,3.55364 -14.2558,2.69497 -28.39561,8.93532 -38.15526,19.96802 -5.21232,5.75767 -8.79311,12.93846 -10.59687,20.50558 -1.64626,7.32401 -0.62315,15.00272 -0.7758,22.48506 1.91209,9.88431 5.9063,20.2638 14.45329,26.3286 5.45683,4.84138 12.62468,7.76375 19.7311,9.30005 7.97884,1.83156 16.27864,0.89741 24.38284,0.99149 13.0434,-1.78128 25.054,-7.77947 35.512,-15.60584 3.1525,-3.24174 7.1966,-4.34094 6.5836,1.50228 -0.4828,6.92829 2.6686,13.90136 10.9331,11.16536 5.9477,-0.30728 12.4008,1.18164 18.0154,-0.96292 1.1781,-5.72913 0.1591,-11.95026 0.4942,-17.87611 -0.014,-35.73464 0.099,-71.46953 -0.071,-107.20396 -0.9013,-6.97469 -2.8727,-13.70832 -6.3639,-19.83794 -3.4016,-5.77362 -8.5289,-10.82519 -14.1663,-14.48099 -6.6697,-2.88241 -13.1377,-6.60937 -20.5545,-7.15595 -2.7355,-0.54342 -5.4732,-1.08696 -8.2071,-1.63019 z m 15.1719,90.01171 c 4.1449,5.55391 1.5267,12.66912 2.0721,19.02364 -0.1239,7.14252 -0.2483,14.28503 -0.3729,21.42754 -9.1604,8.26341 -20.2352,15.47652 -32.6478,17.02784 -7.9632,1.14126 -16.3937,0.85924 -22.833,-4.61543 -7.15999,-4.86467 -10.44298,-14.44354 -9.50293,-22.98713 -1.27404,-9.01096 3.85946,-17.63701 11.26073,-22.51814 7.8757,-4.12693 16.656,-7.21694 25.6678,-6.60296 8.7853,-0.25178 17.5707,-0.50357 26.356,-0.75536 z" />
          <path
             id="path881"
             style="fill:#4e7896;fill-opacity:1"
             d="m 877.34872,425.73444 c -6.56214,0 -13.12429,0 -19.68643,0 -4.48138,-4.87728 -4.44246,-12.06533 -6.9668,-17.93958 -14.75937,-48.14004 -29.51873,-96.28009 -44.27809,-144.42013 -0.31629,-5.21321 6.72663,-3.26472 10.18143,-3.64029 8.14544,0 16.29087,0 24.43631,0 6.76846,5.25456 5.81925,15.51409 9.36983,22.83126 8.72669,29.05232 18.40608,57.84105 26.27281,87.13799 1.83642,4.19778 2.15981,15.16564 4.977,14.97495 3.87889,-9.61008 6.72723,-19.71042 9.94184,-29.60569 9.29271,-30.311 16.25272,-61.36166 20.13766,-92.83851 3.52576,-4.20258 9.30813,-1.95954 14.03041,-2.5 7.13594,0 14.27188,0 21.40782,0 5.34544,7.20902 -2.23795,17.30319 -2.17798,25.57043 -10.06097,47.07033 -24.38328,93.38388 -44.43465,137.18464 -2.81764,5.10956 -9.30201,2.73271 -14.05072,3.24493 -3.05348,0 -6.10696,0 -9.16044,0 z" />
          <path
             id="path869"
             style="fill:#4e7896;fill-opacity:1"
             d="m 715.61523,256.73438 c -12.35334,2.08486 -24.85593,3.71682 -36.59521,8.33127 -6.72055,1.55756 -17.38235,4.19521 -11.7899,13.0819 2.3027,4.47619 1.1742,15.01572 8.1695,14.10893 14.52766,-5.58725 30.00568,-8.63218 45.59134,-8.47131 6.32754,-0.88341 12.49561,1.64292 18.38527,3.45256 8.48545,3.58247 12.88789,13.29492 12.47782,22.14345 -1.16609,6.27949 4.04555,18.67116 -6.36234,16.1356 -12.9181,0.57596 -25.99246,0.16479 -38.60081,3.45798 -16.50151,3.11097 -33.28643,11.065 -42.44648,25.69808 -4.65323,7.96566 -7.72102,17.0966 -7.01336,26.40042 -0.57694,7.35144 0.36247,14.57094 3.0417,21.44202 3.12762,7.30014 8.0846,14.24446 15.11698,18.21834 9.23148,5.60587 20.03664,8.69826 30.87544,7.89038 9.23157,0.98696 18.25114,-1.68466 26.8454,-4.74051 8.36346,-3.71337 15.63892,-9.30462 23.15619,-14.43234 3.42905,5.17918 -0.29693,17.94067 9.43426,16.25338 6.56992,-1.52727 18.2844,3.57504 21.58497,-3.26303 -0.21439,-40.95025 0.0859,-81.9055 -0.14846,-122.85737 -0.90162,-6.97225 -2.87044,-13.70419 -6.36089,-19.8318 -3.39924,-5.77507 -8.52693,-10.8275 -14.16445,-14.48293 -6.74997,-2.99179 -13.36673,-6.56823 -20.85662,-7.27975 -9.94223,-2.36369 -20.2297,-0.83311 -30.34035,-1.25527 z m 37.60157,89.75585 c 4.62608,6.68258 1.03288,15.15136 2.14171,22.6652 0.92593,7.39381 2.7997,16.71255 -4.57184,21.64659 -8.86592,6.39531 -18.74935,12.4251 -29.87071,13.3853 -6.70802,0.40292 -14.17283,1.07429 -19.58912,-3.79849 -7.54059,-3.46338 -11.69539,-12.81696 -11.38683,-20.79836 -1.0274,-8.1966 0.98099,-16.10058 6.53294,-22.36741 5.53246,-4.25498 11.78736,-7.30007 18.59702,-8.85941 8.51697,-1.92381 17.39586,-0.90286 26.08232,-1.53564 4.02151,-0.11253 8.04301,-0.22516 12.06451,-0.33778 z" />
          <path
             id="path863"
             style="fill:#4e7896;fill-opacity:1"
             d="m 583.35219,482.25729 c -7.89703,3.28564 -11.09932,-8.72439 -16.24401,-12.78113 -9.80965,-7.77182 6.31955,-11.59695 10.45808,-17.12451 8.90674,-7.77334 16.60428,-17.5414 18.17897,-29.62863 2.271,-13.26234 0.5682,-26.83567 1.21842,-40.23505 0.31776,-60.08451 0.63552,-120.16902 0.95329,-180.25353 12.01886,1.53658 27.27511,-3.90513 37.30912,2.04678 0.65966,20.5186 -0.0942,41.21129 0.0666,61.79588 -0.31671,49.76297 -9.5e-4,99.57236 -0.87152,149.30565 -2.0763,17.71735 -8.43725,35.62432 -21.95387,47.84104 -7.85986,8.63138 -18.21265,14.98824 -29.11507,19.0335 z" />
        </g>
        <g
           id="g918">
          <path
             id="path885"
             style="fill:#4e7896;fill-opacity:1"
             d="m 240.9174,407.12422 c -12.48477,0.26346 -24.97368,0.75877 -37.43396,-0.34929 -10.21123,-0.4613 -20.41417,-1.00611 -30.48973,-2.8318 -7.703,-1.19728 -15.57585,-1.66948 -22.84836,-4.70442 -3.57983,-0.98588 -7.4202,-2.48391 -9.86496,-5.20197 -1.01335,-2.61783 -1.27651,-5.14311 0.71899,-7.38974 2.39738,-2.53675 6.39511,-3.42891 9.42944,-5.31109 5.94187,-3.31421 12.2078,-5.83559 18.76163,-7.65265 7.78644,-2.78835 15.75974,-4.86646 23.90691,-6.28381 7.37902,-1.43535 14.92752,-1.79904 22.37819,-2.78133 3.53574,0.35156 4.91258,2.11859 1.38924,4.04901 -10.21382,2.09646 -20.03295,5.69637 -29.82263,9.1894 -3.59442,1.96369 -7.72163,3.37502 -10.9848,5.68213 -2.5571,2.65103 -0.84527,4.21351 1.94754,5.5003 3.82807,2.05732 8.56471,1.85853 12.76323,2.99597 8.09702,1.59861 16.45197,0.71205 24.66283,1.21374 16.64362,0.16067 33.30198,1.34242 49.92433,0.0285 16.88442,-0.88173 33.80074,-1.34791 50.58782,-3.49753 17.57149,-1.78153 35.02287,-4.6112 52.47429,-7.30087 1.08105,3.61799 -3.11337,4.02094 -5.38729,5.59429 -5.20077,2.47515 -10.05921,5.90766 -15.484,7.75628 -12.93464,2.59013 -25.80445,5.57562 -38.96485,6.78902 -15.57355,2.27158 -31.29844,3.1846 -46.9951,4.10295 -6.88954,0.13428 -13.77945,0.26858 -20.66876,0.40286 z" />
          <path
             id="path867"
             style="fill:#4e7896;fill-opacity:1"
             d="m 373.66694,452.18613 c -5.68836,-1.43326 1.2714,-7.63567 4.62333,-7.5726 6.79333,-3.18909 12.86611,-7.71965 18.87476,-12.16747 8.8617,-7.03366 17.40019,-15.16884 22.28374,-25.53885 3.97254,-8.66635 4.11192,-19.63804 -2.04241,-27.35351 -4.86621,-6.10423 -12.40306,-10.34099 -20.22745,-10.84664 -4.71685,-0.0903 -9.31542,1.11131 -13.95453,1.77301 -5.33915,-3.16291 3.22778,-7.59108 6.60681,-7.8936 15.20815,-4.4516 33.44591,-1.7551 44.62212,10.15852 5.92917,6.14354 9.71736,14.76207 8.58295,23.38558 0.68031,10.39655 -5.83016,19.46717 -12.61259,26.67669 -15.34315,15.40007 -36.20608,23.57302 -56.75673,29.37887 z" />
          <path
             id="path865"
             style="fill:#4e7896;fill-opacity:1"
             d="m 259.91694,456.16415 c -13.04787,0.14082 -26.17661,1.00058 -39.10872,-1.29286 -9.15793,-1.1643 -18.27148,-2.5762 -27.04472,-5.53798 -6.44027,-1.94535 -13.89315,-4.56058 -17.12612,-10.94089 -2.3789,-6.87936 4.29117,-12.09187 9.80326,-14.66439 4.40244,-1.52847 8.45208,-5.41475 13.2487,-4.93649 0.95473,3.98335 -6.86475,9.39169 -0.48552,13.20538 6.31443,1.91195 12.74506,3.42643 19.37288,3.62308 15.64502,1.50426 31.3784,2.00833 47.08464,2.21398 16.11556,-1.09652 32.24731,-2.32448 48.17908,-5.103 6.92894,-1.07437 13.83084,-2.32074 20.70305,-3.71196 5.27797,4.90687 13.36513,7.66357 17.97547,12.36642 -3.81308,5.06924 -12.56715,3.69192 -18.3068,6.2536 -17.46562,4.16293 -35.32871,6.70044 -53.19894,8.20784 -7.03208,0.10576 -14.06419,0.2115 -21.09626,0.31727 z" />
          <path
             id="path861"
             style="fill:#4e7896;fill-opacity:1"
             d="m 268.91694,507.23695 c -15.73949,0.9857 -31.56889,-0.43382 -46.891,-4.15895 -8.0128,-1.50687 -15.54875,-4.64746 -23.03503,-7.78542 -3.83717,-4.11924 -10.60384,-7.56579 -8.50942,-14.38328 1.97227,-6.57288 9.3591,-8.34333 14.74243,-11.24892 2.98348,-2.25273 7.72603,-0.8147 4.74759,3.24485 -1.4068,5.89628 5.67243,6.28687 9.59308,7.383 8.17762,1.50633 16.53821,1.63518 24.76022,2.86038 13.23499,0.83914 26.5917,1.06901 39.79963,-0.261 11.88375,-1.31038 23.64639,-3.48839 35.47296,-5.20723 7.94957,2.51389 14.6869,7.70204 22.56316,10.36195 7.02577,3.55537 -2.78691,6.39879 -6.26892,7.6909 -11.71145,4.11974 -23.85635,7.03246 -36.08095,9.14543 -10.22084,1.80829 -20.51571,2.46071 -30.89375,2.35829 z" />
          <path
             id="path859"
             style="fill:#4e7896;fill-opacity:1"
             d="m 249.20559,551.58741 c -43.61995,0.38205 -87.19799,-3.98799 -130.15789,-11.36476 -12.20676,0.0531 -23.700674,-14.24309 -9.3452,-21.54933 14.55718,-10.05513 32.24934,-15.05631 49.64678,-17.42065 4.1384,-2.76666 23.20474,1.49943 11.68194,4.8874 -12.71828,2.57903 -27.33354,3.80954 -36.96042,13.38983 4.28551,9.47416 23.13075,9.62882 33.9709,12.43452 32.07525,4.49811 64.57399,5.59529 96.93003,5.62486 44.65585,-1.84251 90.01151,-2.22167 133.53752,-13.48793 9.46665,-1.19152 18.52279,-8.68845 17.09609,-17.59197 12.17233,2.69953 7.36014,17.37736 -2.47738,19.88508 -21.7768,11.77058 -46.75969,15.5019 -70.89978,19.43363 -30.82253,4.03649 -61.9192,6.58379 -93.02259,5.75932 z" />
          <path
             id="path837"
             style="fill:#4e7896;fill-opacity:1"
             d="m 283.91694,573.16251 c -22.38599,0.48113 -44.79192,0.50613 -67.09311,-1.74176 -16.32036,-1.53563 -32.93783,-3.20858 -48.31173,-9.2533 -5.49879,-6.52688 10.29296,-1.59014 13.74459,-1.88064 24.82608,3.20705 49.8413,4.20096 74.85391,3.76478 25.81377,0.59075 51.61374,-0.59172 77.26023,-3.57368 31.60021,-3.86205 63.86909,-8.06078 93.16989,-21.21203 5.12561,-0.18507 15.00387,-14.27818 15.33749,-5.43516 -5.78726,13.13322 -20.04944,19.5867 -32.89881,24.03924 -30.94516,10.18195 -63.69307,13.2155 -96.0487,15.10029 -10.00404,0.03 -20.00859,0.0674 -30.01376,0.19226 z" />
        </g>
      </g>
    </g>
  </g>
</svg>
