<?xml version="1.0" encoding="UTF-8" standalone="no"?>
<svg
   xmlns:dc="http://purl.org/dc/elements/1.1/"
   xmlns:cc="http://creativecommons.org/ns#"
   xmlns:rdf="http://www.w3.org/1999/02/22-rdf-syntax-ns#"
   xmlns:svg="http://www.w3.org/2000/svg"
   xmlns="http://www.w3.org/2000/svg"
   xmlns:sodipodi="http://sodipodi.sourceforge.net/DTD/sodipodi-0.dtd"
   xmlns:inkscape="http://www.inkscape.org/namespaces/inkscape"
   width="172mm"
   height="49mm"
   viewBox="0 0 172 49"
   version="1.1"
   id="svg8"
   inkscape:version="1.0.2 (e86c870879, 2021-01-15)"
   sodipodi:docname="python.svg">
  <defs
     id="defs2">
    <rect
       x="50.906914"
       y="27.324751"
       width="1.9028749"
       height="11.493107"
       id="rect864" />
    <clipPath
       clipPathUnits="userSpaceOnUse"
       id="clipPath36">
      <rect
         style="fill:#ffffff;stroke:#000000;stroke-width:0.001;stroke-opacity:0.988551"
         id="rect38"
         width="228.82137"
         height="209.44272"
         x="59.126534"
         y="19.943539" />
    </clipPath>
  </defs>
  <sodipodi:namedview
     id="base"
     pagecolor="#ffffff"
     bordercolor="#666666"
     borderopacity="1.0"
     inkscape:pageopacity="0.0"
     inkscape:pageshadow="2"
     inkscape:zoom="0.35355339"
     inkscape:cx="-304.64704"
     inkscape:cy="309.79117"
     inkscape:document-units="mm"
     inkscape:current-layer="layer1"
     inkscape:document-rotation="0"
     showgrid="false"
     borderlayer="false"
     inkscape:pagecheckerboard="true"
     inkscape:window-width="1366"
     inkscape:window-height="693"
     inkscape:window-x="0"
     inkscape:window-y="0"
     inkscape:window-maximized="1" />
  <metadata
     id="metadata5">
    <rdf:RDF>
      <cc:Work
         rdf:about="">
        <dc:format>image/svg+xml</dc:format>
        <dc:type
           rdf:resource="http://purl.org/dc/dcmitype/StillImage" />
        <dc:title></dc:title>
      </cc:Work>
    </rdf:RDF>
  </metadata>
  <g
     inkscape:label="Capa 1"
     inkscape:groupmode="layer"
     id="layer1">
    <text
       xml:space="preserve"
       id="text862"
       style="font-style:normal;font-weight:normal;font-size:10.5833px;line-height:1.25;font-family:sans-serif;white-space:pre;shape-inside:url(#rect864);fill:#000000;fill-opacity:1;stroke:none;" />
    <g
       id="g986">
      <path
         id="path851"
         style="fill:#356a9e;fill-opacity:1;stroke-width:0.210461"
         d="M 5.2289651,35.758246 C 3.139176,35.129002 1.6773076,33.020432 0.61903387,29.108973 c -0.65068304,-2.404969 -0.65068304,-7.65938 0,-10.064349 C 1.4937598,15.81158 2.6900465,13.750964 4.2115569,12.856482 l 0.9618388,-0.565459 9.3260453,-0.06092 9.326045,-0.06091 -0.06579,-0.570463 -0.06579,-0.570463 -5.966559,-0.05593 -5.966551,-0.05593 0.07366,-2.6800558 c 0.06761,-2.4590611 0.120295,-2.7593676 0.639129,-3.6418977 0.89448,-1.5215057 2.955093,-2.7177956 6.188137,-3.5925216 2.404974,-0.65068299 7.659382,-0.65068299 10.064348,0 3.233044,0.874726 5.293669,2.0710159 6.188149,3.5925216 l 0.565454,0.9618425 -0.01933,5.156277 c -0.02179,5.799827 -0.24743,7.723415 -1.127792,9.613632 -1.072127,2.301957 -2.909001,2.995005 -8.007877,3.02136 -5.75035,0.02973 -9.901452,0.333191 -11.17982,0.817305 -2.227448,0.843518 -3.526943,2.706918 -4.090043,5.864875 -0.159232,0.892992 -0.292817,2.154972 -0.296858,2.804398 -0.004,0.649423 -0.06753,1.620172 -0.141175,2.157218 L 10.482947,35.96781 8.1438748,35.94972 C 6.8573907,35.93982 5.5456936,35.85361 5.2289969,35.758255 Z M 18.114383,8.2934793 C 19.332259,7.6636894 19.701144,6.4731378 19.061594,5.236391 18.661679,4.4630352 18.150966,4.1870373 17.130853,4.1929815 c -2.314341,0.013484 -2.964375,3.183884 -0.842052,4.1069449 0.863242,0.3754521 1.088607,0.3746568 1.825582,-0.00645 z" />
      <path
         id="path155"
         style="fill:#f9e05c;fill-opacity:1;stroke-width:0.210461"
         d="m 20.785051,47.545699 c -2.546881,-0.321396 -5.517398,-1.403825 -7.150915,-2.605711 -0.335285,-0.246697 -0.8608,-0.874722 -1.167809,-1.395616 -0.524243,-0.889461 -0.562591,-1.136502 -0.630314,-4.061168 -0.09704,-4.190114 0.266902,-8.97251 0.818762,-10.759226 0.276765,-0.896073 0.703948,-1.708217 1.169615,-2.223661 1.237904,-1.370211 1.911778,-1.50236 8.711983,-1.708446 3.298962,-0.09999 6.708417,-0.279632 7.576569,-0.399231 2.768407,-0.381382 4.576514,-1.609869 5.524862,-3.753766 0.501128,-1.132885 0.982067,-3.711658 0.992066,-5.319418 0.0039,-0.649425 0.0688,-1.62932 0.143966,-2.177545 l 0.136613,-0.996773 2.651983,0.07294 c 2.429076,0.06681 2.732815,0.120468 3.613813,0.638402 1.523252,0.895508 2.722968,2.963754 3.589511,6.188142 0.645596,2.402269 0.645596,7.66208 0,10.064349 -0.866543,3.224388 -2.066259,5.292634 -3.589511,6.188143 l -0.961839,0.565458 -9.326045,0.06092 -9.32605,0.06092 0.06579,0.570462 0.06579,0.570464 5.96655,0.05593 5.966553,0.05593 -0.07366,2.680054 c -0.06761,2.459061 -0.120295,2.759372 -0.639121,3.641897 -0.898871,1.528979 -3.024117,2.758658 -6.149028,3.557877 -1.887994,0.482864 -5.859938,0.696233 -7.980144,0.428679 z m 10.723866,-3.953393 c 0.979062,-0.793063 1.165252,-1.851492 0.51367,-2.920065 -0.803967,-1.318481 -2.611398,-1.380063 -3.600464,-0.122668 -0.694619,0.883062 -0.373698,2.629495 0.585897,3.188404 0.584052,0.340178 2.003149,0.257524 2.500897,-0.145669 z" />
      <g
         id="g974"
         style="fill:#656565;fill-opacity:1"
         transform="matrix(1.6246911,0,0,1.6246911,-40.497808,-58.887504)">
        <path
           id="path900"
           style="fill:#656565;fill-opacity:1;stroke-width:0.999999"
           d="m 407.15039,172.23828 c -6.12134,-0.0154 -9.98955,1.47917 -13.72461,5.13086 -5.62817,5.50258 -7.49138,10.2691 -7.53711,19.28125 -0.0345,6.80047 0.38351,8.86291 2.78321,13.75781 3.06391,6.24965 7.17715,10.00667 12.66601,11.56641 5.03928,1.43198 7.99084,1.36817 13.59766,-0.29688 9.51046,-2.8243 14.56551,-10.66949 15.16211,-23.52734 0.36094,-7.77976 0.15556,-8.96585 -2.43164,-13.99414 -3.96046,-7.69732 -9.34771,-11.28542 -17.74805,-11.82031 -0.97264,-0.0619 -1.8931,-0.0955 -2.76758,-0.0977 z m 0.8418,4.94727 c 9.71841,0.0895 15.33787,9.44733 14.03711,23.37695 -0.89004,9.53139 -3.57732,14.45431 -9.01953,16.52344 -4.18904,1.59268 -7.78888,1.28866 -11.48829,-0.9668 -4.94698,-3.01607 -7.47578,-9.56334 -7.50976,-19.45117 -0.0438,-12.7406 4.85431,-19.56651 13.98047,-19.48242 z"
           transform="scale(0.26458333)" />
        <path
           style="fill:#656565;fill-opacity:1;stroke-width:0.264583"
           d="m 90.376201,58.239344 0.112939,-19.164146 1.927388,-0.672805 -0.06664,8.781902 c 5.492231,-3.410265 6.655741,-0.892707 7.957052,1.782889 l 0.19209,9.148646 h -2.381249 l 0.0352,-9.201565 c 0.0727,-0.166064 -2.046685,-3.543326 -5.739387,-0.06601 l 0.279306,9.387158 z"
           id="path912"
           sodipodi:nodetypes="ccccccccccc" />
        <path
           style="fill:#656565;fill-opacity:1;stroke-width:0.264583"
           d="m 72.87978,63.416524 c 4.599631,-0.575361 5.097465,-2.116131 4.931292,-6.019199 -3.071072,1.685186 -7.040506,1.329383 -8.412044,-1.745738 l -0.253132,-9.553906 c 0.673017,-0.158177 1.443216,-0.470666 2.090598,-0.413499 0.39725,3.430587 0.262721,5.968595 0.262721,9.7121 1.447509,2.379649 4.682392,1.58038 5.848764,0.677713 V 45.812701 h 2.354061 c 0.333103,16.390686 1.464091,18.090511 -6.75383,18.789923 z"
           id="path882"
           sodipodi:nodetypes="ccccccccccc" />
        <path
           id="path874"
           style="fill:#656565;fill-opacity:1;stroke-width:0.999999"
           d="m 233.58203,172.15039 c -11.7644,0 -21.02841,4.54283 -21.41406,10.5 -0.10685,1.65 -0.11229,16.09753 -0.0117,32.10547 l 0.18164,29.10547 3.25,1.04297 c 5.9572,1.91102 5.75,2.35313 5.75,-12.2793 v -13.52539 l 2.78516,1.43945 c 11.25442,5.8199 24.66114,0.55893 28.6875,-11.25781 3.52549,-10.34673 0.89552,-26.61618 -5.22461,-32.32422 -4.30256,-4.01285 -6.61548,-4.80664 -14.00391,-4.80664 z m -0.96289,5 c 9.40981,0 12.70459,5.42292 12.71484,20.93359 0.006,9.66797 -2.30195,15.97355 -6.55664,17.91211 -3.86021,1.75883 -11.46536,1.31592 -15.68945,-0.91406 l -3.75,-1.97851 v -16.36914 -16.36719 l 4.02149,-1.60742 c 2.21112,-0.88472 6.37777,-1.60938 9.25976,-1.60938 z"
           transform="scale(0.26458333)" />
        <path
           style="fill:#656565;fill-opacity:1;stroke-width:0.264583"
           d="m 131.62158,42.902282 c 0.14399,0 0.18701,-0.121004 0.0956,-0.268899 -0.28218,-0.456579 -0.6607,-0.0022 -0.62276,0.747535 0.0316,0.623596 0.0503,0.638081 0.15069,0.116677 0.0631,-0.327422 0.23247,-0.595313 0.37646,-0.595313 z"
           id="path930" />
        <path
           style="fill:#656565;fill-opacity:1;stroke:none;stroke-width:0.264583px;stroke-linecap:butt;stroke-linejoin:miter;stroke-opacity:1"
           d="m 83.405429,45.787614 -0.03265,-3.55685 2.180151,-0.780251 -0.0161,4.347879 2.179445,0.02409 -0.01796,1.188529 -2.108575,0.0289 -0.07346,8.811521 c 0.338496,1.238586 1.363625,1.28782 2.266275,1.549207 l -0.02106,0.796875 -2.166956,-0.09778 c -0.874045,-0.266875 -1.786812,-0.448339 -2.122247,-1.903248 l 0.01356,-9.057296 -1.330568,7.1e-5 -0.02027,-1.325418 z"
           id="path963"
           sodipodi:nodetypes="cccccccccccccccc" />
        <path
           style="fill:#656565;fill-opacity:1;stroke:none;stroke-width:0.264583px;stroke-linecap:butt;stroke-linejoin:miter;stroke-opacity:1"
           d="m 115.48589,58.186221 2.1461,-0.01524 -0.0722,-10.168696 c 1.75548,-2.130628 5.22105,-1.254254 5.86733,-0.04166 l 0.0722,10.170493 2.05229,-0.01458 -0.0723,-10.17825 c -1.36427,-3.691684 -8.21512,-3.171806 -10.096,0.0717 l 0.0723,10.176452 z"
           id="path965"
           sodipodi:nodetypes="cccccccccc" />
      </g>
    </g>
  </g>
</svg>
